<svg width="70" height="70" viewBox="0 0 70 70" fill="none" xmlns="http://www.w3.org/2000/svg">
<circle cx="35" cy="35" r="35" fill="#FAEDFF"/>
<path d="M30.9987 33.3332C30.7475 33.3336 30.5054 33.2393 30.3205 33.0693C30.1356 32.8992 30.0215 32.6659 30.0008 32.4155C29.9802 32.1652 30.0545 31.9162 30.209 31.7182C30.3635 31.5201 30.5868 31.3875 30.8347 31.3466L46.8347 28.6799C47.0964 28.6362 47.3647 28.6983 47.5806 28.8525C47.7965 29.0066 47.9424 29.2402 47.986 29.5019C48.0297 29.7636 47.9676 30.0319 47.8135 30.2478C47.6593 30.4637 47.4257 30.6096 47.164 30.6532L31.164 33.3199C31.1089 33.329 31.0545 33.3334 30.9987 33.3332Z" fill="#BD03FC"/>
<path d="M47.6467 22.2372C47.5359 22.1433 47.406 22.0746 47.266 22.0359C47.126 21.9972 46.9793 21.9895 46.836 22.0132L30.836 24.6799C30.6028 24.7193 30.391 24.84 30.2382 25.0206C30.0854 25.2012 30.0015 25.43 30.0013 25.6666V39.0252C29.1407 38.364 28.0867 38.0038 27.0013 37.9999C24.244 37.9999 22.0013 40.2439 22.0013 42.9999C22.0013 45.7559 24.244 47.9999 27.0013 47.9999C29.7587 47.9999 32.0013 45.7559 32.0013 42.9999V26.5146L46.0013 24.1812V36.3586C45.1407 35.6974 44.0867 35.3371 43.0013 35.3332C40.244 35.3332 38.0013 37.5772 38.0013 40.3332C38.0013 43.0892 40.244 45.3332 43.0013 45.3332C45.7587 45.3332 48.0013 43.0892 48.0013 40.3332V22.9999C48.0015 22.8547 47.97 22.7113 47.9089 22.5795C47.8479 22.4478 47.7575 22.331 47.6467 22.2372ZM27 45.9999C25.3453 45.9999 24 44.6532 24 42.9999C24 41.3466 25.3453 39.9999 27 39.9999C28.6547 39.9999 30 41.3466 30 42.9999C30 44.6532 28.6547 45.9999 27 45.9999ZM43 43.3332C41.3453 43.3332 40 41.9866 40 40.3332C40 38.6799 41.3453 37.3332 43 37.3332C44.6547 37.3332 46 38.6799 46 40.3332C46 41.9866 44.6547 43.3332 43 43.3332Z" fill="#BD03FC"/>
</svg>
