<svg width="417" height="147" viewBox="0 0 417 147" fill="none" xmlns="http://www.w3.org/2000/svg">
<path d="M162.717 91.8387C162.852 93.0371 162.922 94.2743 162.922 95.5477L162.915 96.2411C162.625 110.727 153.214 120.444 138.233 120.444L137.524 120.436C122.957 120.134 113.838 110.497 113.553 96.2411L113.546 95.5477C113.546 94.2743 113.617 93.0371 113.752 91.8387H114.758C114.619 93.0332 114.546 94.2703 114.546 95.5477C114.546 102.767 116.841 108.725 120.897 112.872C124.951 117.016 130.851 119.444 138.233 119.444C145.616 119.444 151.517 117.016 155.57 112.872C159.627 108.725 161.922 102.768 161.922 95.5477C161.922 94.2703 161.85 93.0332 161.711 91.8387H162.717ZM296.905 91.8387C305.472 93.9003 309.65 97.9851 309.681 104.538L309.672 104.982C309.356 114.261 300.137 120.444 287.343 120.444L286.724 120.439C273.799 120.265 265.868 114.61 264.582 105.513L278.265 104.821C279.087 108.627 282.208 110.664 286.915 110.788L287.376 110.794C292.242 110.794 295.475 108.75 295.54 105.889C295.475 103.469 293.482 101.929 289.106 101.08L280.42 99.4139C273.802 98.1397 269.494 95.5888 267.405 91.8387H268.571C269.017 92.5418 269.55 93.1956 270.177 93.7977C272.391 95.9255 275.817 97.5098 280.609 98.4325H280.608L289.295 100.098H289.297L290.117 100.271C291.977 100.697 293.465 101.286 294.542 102.098C295.824 103.064 296.499 104.331 296.54 105.863V105.913C296.498 107.764 295.417 109.269 293.778 110.268C292.154 111.258 289.934 111.794 287.376 111.794C284.767 111.794 282.494 111.258 280.734 110.121C279.181 109.117 278.08 107.678 277.507 105.86L265.762 106.454C266.569 110.29 268.699 113.396 272.022 115.612C275.676 118.049 280.829 119.444 287.343 119.444C293.69 119.444 299.051 117.884 302.798 115.245C306.522 112.622 308.663 108.936 308.681 104.543L308.665 103.945C308.525 100.998 307.439 98.6763 305.399 96.8465C303.185 94.8601 299.77 93.3843 294.99 92.4422V92.4432L291.874 91.8387H296.905ZM364.177 91.8387C364.272 92.8894 364.322 93.9791 364.322 95.1082V98.786H330.164V98.8172C330.164 105.791 334.302 110.167 340.884 110.434L341.528 110.448C346.166 110.448 349.758 108.53 351.162 104.852L364.028 105.67C362.069 114.629 353.709 120.444 341.3 120.444L340.58 120.437C325.799 120.149 316.708 110.948 316.423 96.2928L316.416 95.5789C316.416 94.2953 316.49 93.0476 316.629 91.8387H317.635C317.491 93.0438 317.416 94.2915 317.416 95.5789C317.416 103.026 319.707 108.969 323.773 113.047C327.839 117.124 333.785 119.444 341.3 119.444C352.85 119.444 360.497 114.316 362.762 106.591L351.802 105.894C350.036 109.62 346.156 111.448 341.528 111.448C337.834 111.448 334.718 110.266 332.524 108.032C330.333 105.8 329.164 102.622 329.164 98.8172V97.786H363.322V95.1082C363.322 93.9755 363.27 92.8859 363.172 91.8387H364.177ZM403.504 91.8387C412.071 93.9003 416.249 97.9851 416.279 104.538L416.271 104.982C415.954 114.261 406.736 120.444 393.942 120.444L393.323 120.439C380.398 120.265 372.467 114.61 371.181 105.513L384.863 104.821C385.686 108.628 388.808 110.664 393.515 110.788L393.975 110.794C398.84 110.794 402.073 108.75 402.139 105.889C402.073 103.469 400.081 101.929 395.705 101.08L387.019 99.4139C380.401 98.1397 376.093 95.5888 374.004 91.8387H375.171C375.617 92.5418 376.15 93.1956 376.776 93.7977C378.991 95.9253 382.416 97.5099 387.208 98.4325H387.207L395.894 100.098H395.896L396.716 100.271C398.576 100.697 400.063 101.286 401.141 102.098C402.422 103.064 403.097 104.331 403.139 105.863V105.913C403.096 107.764 402.016 109.269 400.377 110.268C398.753 111.258 396.533 111.794 393.975 111.794C391.366 111.794 389.094 111.258 387.334 110.121C385.78 109.117 384.679 107.678 384.105 105.86L372.361 106.454C373.168 110.29 375.299 113.396 378.622 115.612C382.276 118.048 387.429 119.444 393.942 119.444C400.289 119.444 405.649 117.884 409.396 115.245C413.12 112.622 415.262 108.936 415.279 104.543L415.264 103.945C415.124 100.998 414.038 98.6762 411.999 96.8465C409.785 94.86 406.368 93.3843 401.589 92.4422V92.4432L398.473 91.8387H403.504ZM60.1152 91.8387C61.4609 102.475 67.685 108.14 76.415 108.337L76.8887 108.342C84.4322 108.342 90.0487 104.381 91.3877 97.4969L105.691 97.5594C104.157 109.41 93.8048 120.381 76.6602 120.381L75.8242 120.372C59.6705 120.029 47.4707 109.728 45.7227 91.8387H46.7275C47.5404 99.9665 50.559 106.419 55.085 111.019C60.4226 116.444 67.9411 119.381 76.6602 119.381C92.7718 119.381 102.568 109.454 104.525 98.5536L92.1885 98.4998C91.3684 101.798 89.5795 104.45 87.0576 106.306C84.3412 108.306 80.8328 109.342 76.8887 109.342C71.5568 109.342 66.9995 107.425 63.793 103.636C61.3226 100.716 59.7105 96.7496 59.1084 91.8387H60.1152ZM218.046 119.501H204.689V110.73H204.167C201.914 116.388 196.493 120.13 188.949 120.13L188.479 120.125C178.646 119.913 172 113.069 171.968 101.961V91.8387H172.968V101.958L172.975 102.464C173.089 107.663 174.728 111.767 177.411 114.588C180.177 117.494 184.139 119.13 188.949 119.13C196.131 119.13 201.153 115.596 203.238 110.361L203.489 109.73H205.689V118.501H217.046V91.8387H218.046V119.501ZM243.086 92.1844V119.501H229.174V91.8387H230.174V118.501H242.086V92.1844C242.086 92.0685 242.092 91.9533 242.095 91.8387H243.095C243.091 91.9533 243.086 92.0684 243.086 92.1844ZM149.549 91.8387C149.703 92.9967 149.782 94.2063 149.782 95.4539C149.782 99.789 148.861 103.661 146.953 106.481C145.017 109.343 142.093 111.07 138.299 111.07C134.447 111.07 131.489 109.35 129.533 106.485C127.607 103.663 126.686 99.7888 126.686 95.4539C126.686 94.2065 126.765 92.9969 126.92 91.8387H127.928C127.768 92.9858 127.686 94.1952 127.686 95.4539L127.696 96.2372C127.91 104.13 131.383 109.883 137.973 110.066L138.299 110.07C144.974 110.07 148.554 104.259 148.771 96.2372L148.782 95.4539C148.782 94.1952 148.7 92.9858 148.541 91.8387H149.549ZM205.135 98.9373L205.123 99.5838C204.994 102.768 203.787 105.288 201.92 107.036C199.941 108.888 197.286 109.813 194.566 109.813C191.704 109.813 189.262 108.84 187.536 107.013C185.924 105.305 185.015 102.937 184.894 100.141L184.88 99.577V91.8387H185.88V99.5711C185.912 105.083 189.1 108.589 194.079 108.803L194.566 108.813C199.563 108.813 204.167 105.418 204.135 98.9432V91.8387H205.135V98.9373Z" fill="#999999"/>
<path d="M162.914 122.82C162.614 137.294 153.205 147 138.233 147L137.524 146.992C122.965 146.69 113.849 137.063 113.554 122.82H114.554C114.701 129.718 116.976 135.419 120.897 139.428C124.951 143.572 130.851 146 138.233 146C145.616 146 151.517 143.572 155.57 139.428C159.491 135.419 161.767 129.718 161.914 122.82H162.914ZM306.245 122.82C308.531 124.955 309.665 127.692 309.681 131.094L309.672 131.538C309.356 140.817 300.137 147 287.343 147L286.724 146.995C273.799 146.821 265.868 141.166 264.582 132.069L278.265 131.377C279.087 135.183 282.208 137.22 286.915 137.344L287.376 137.35C292.242 137.35 295.475 135.306 295.54 132.445C295.475 130.025 293.482 128.485 289.106 127.636L280.42 125.97C276.865 125.285 273.978 124.23 271.742 122.82H273.784C275.644 123.739 277.91 124.469 280.609 124.988H280.608L289.295 126.654H289.297L290.117 126.827C291.977 127.253 293.465 127.842 294.542 128.653C295.824 129.62 296.499 130.887 296.54 132.419V132.469C296.498 134.32 295.417 135.825 293.778 136.824C292.154 137.814 289.934 138.35 287.376 138.35C284.767 138.35 282.494 137.814 280.734 136.677C279.181 135.673 278.08 134.234 277.507 132.416L265.762 133.01C266.569 136.846 268.699 139.952 272.022 142.168C275.676 144.605 280.829 146 287.343 146C293.69 146 299.051 144.44 302.798 141.801C306.522 139.178 308.663 135.492 308.681 131.099L308.665 130.501C308.525 127.554 307.439 125.232 305.399 123.403C305.176 123.202 304.939 123.01 304.691 122.82H306.245ZM364.322 125.342H330.164V125.373C330.164 132.346 334.302 136.723 340.884 136.99L341.528 137.004C346.165 137.004 349.758 135.086 351.162 131.408L364.028 132.226C362.069 141.184 353.709 147 341.3 147L340.58 146.993C325.799 146.705 316.708 137.504 316.423 122.849V122.82H317.423C317.56 129.947 319.833 135.651 323.773 139.603C327.839 143.68 333.785 146 341.3 146C352.85 146 360.496 140.872 362.762 133.147L351.802 132.45C350.036 136.176 346.156 138.004 341.528 138.004C337.834 138.004 334.718 136.822 332.524 134.588C330.333 132.356 329.164 129.178 329.164 125.373V124.342H363.322V122.82H364.322V125.342ZM412.844 122.82C415.13 124.955 416.263 127.692 416.279 131.094L416.271 131.538C415.954 140.816 406.736 147 393.942 147L393.323 146.995C380.398 146.821 372.467 141.166 371.181 132.069L384.863 131.377C385.686 135.184 388.808 137.22 393.515 137.344L393.975 137.35C398.84 137.35 402.073 135.306 402.139 132.445C402.073 130.025 400.081 128.485 395.705 127.636L387.019 125.97C383.464 125.285 380.577 124.23 378.341 122.82H380.384C382.243 123.739 384.509 124.469 387.208 124.988H387.207L395.894 126.654H395.896L396.716 126.827C398.576 127.253 400.063 127.842 401.141 128.653C402.422 129.62 403.097 130.887 403.139 132.419L403.14 132.444L403.139 132.469C403.096 134.32 402.017 135.825 400.378 136.824C398.754 137.814 396.533 138.35 393.975 138.35C391.366 138.35 389.094 137.814 387.334 136.677C385.78 135.673 384.679 134.234 384.105 132.416L372.361 133.01C373.168 136.846 375.299 139.952 378.622 142.168C382.276 144.604 387.429 146 393.942 146C400.289 146 405.649 144.44 409.396 141.801C413.12 139.178 415.262 135.492 415.279 131.099L415.264 130.501C415.124 127.554 414.038 125.232 411.999 123.403C411.776 123.202 411.539 123.01 411.291 122.82H412.844ZM61.0352 122.82C63.3736 130.599 68.9872 134.725 76.415 134.893L76.8887 134.898C84.4322 134.898 90.0497 130.937 91.3887 124.053L105.691 124.115C104.156 135.966 93.8047 146.937 76.6602 146.937L75.8242 146.928C61.0534 146.614 49.5877 137.975 46.3965 122.82H47.4189C48.7343 128.894 51.414 133.844 55.085 137.575C60.4226 143 67.9411 145.937 76.6602 145.937C92.7717 145.937 102.568 136.01 104.525 125.11L92.1885 125.056C91.3684 128.354 89.5795 131.006 87.0576 132.862C84.3413 134.861 80.8327 135.898 76.8887 135.898C71.5568 135.898 66.9995 133.981 63.793 130.192C62.1141 128.207 60.8321 125.739 59.9932 122.82H61.0352ZM218.046 146.057H204.689V137.286H204.167C201.914 142.944 196.493 146.686 188.949 146.686L188.479 146.681C178.646 146.469 172 139.625 171.968 128.517V122.82H172.968V128.514L172.975 129.02C173.089 134.219 174.728 138.323 177.411 141.144C180.177 144.05 184.139 145.686 188.949 145.686C196.131 145.686 201.153 142.152 203.238 136.917L203.489 136.286H205.689V145.057H217.046V122.82H218.046V146.057ZM243.086 146.057H229.174V122.82H230.174V145.057H242.086V122.82H243.086V146.057ZM149.771 122.82C149.663 126.827 148.741 130.394 146.953 133.037C145.017 135.899 142.093 137.626 138.299 137.626C134.447 137.626 131.489 135.906 129.533 133.041C127.728 130.396 126.805 126.827 126.696 122.82H127.697C127.919 130.699 131.391 136.439 137.973 136.622L138.299 136.626C144.966 136.626 148.546 130.828 148.771 122.82H149.771ZM205.135 125.493L205.123 126.14C204.994 129.324 203.787 131.844 201.92 133.592C199.941 135.444 197.286 136.369 194.566 136.369C191.704 136.369 189.262 135.396 187.536 133.569C185.817 131.748 184.897 129.174 184.88 126.133V122.82H185.88V126.127C185.912 131.639 189.1 135.145 194.079 135.359L194.566 135.369C199.563 135.369 204.167 131.974 204.135 125.499V122.82H205.135V125.493Z" fill="#D6D6D6"/>
<line y1="-0.5" x2="100.41" y2="-0.5" transform="matrix(-0.720458 0.693498 -0.720458 -0.693498 93.668 -0.000160217)" stroke="#474747"/>
<line y1="-0.5" x2="63.8209" y2="-0.5" transform="matrix(-0.720458 0.693498 -0.720458 -0.693498 46.6162 33.1199)" stroke="#474747"/>
<path d="M138.233 41.82C153.451 41.82 162.922 51.8163 162.922 66.779C162.922 81.6474 153.451 91.6754 138.233 91.6754C123.016 91.6752 113.546 81.6473 113.546 66.779C113.546 51.8164 123.016 41.8202 138.233 41.82ZM287.18 41.82C299.85 41.82 307.296 47.3215 308.537 56.2174L295.802 56.9713C295.116 53.8594 292.241 51.3131 287.408 51.3131C283.098 51.3132 279.702 53.1996 279.734 56.0915C279.702 58.4176 281.433 59.9578 286.103 60.9323L295.181 62.693C304.912 64.6105 309.648 68.7909 309.681 75.7692C309.648 85.2938 300.34 91.6754 287.343 91.6754C274.052 91.6753 265.888 85.9854 264.582 76.7438L278.265 76.0524C279.114 79.9816 282.412 82.0251 287.376 82.0251C292.242 82.025 295.475 79.9813 295.54 77.1208C295.475 74.7005 293.482 73.1599 289.106 72.3112L280.42 70.6452C270.623 68.7591 265.888 64.0752 265.921 56.8454C265.889 47.5411 274.346 41.8201 287.18 41.82ZM340.745 41.82C354.003 41.8201 364.322 49.9309 364.322 66.3395V70.0172H330.164V70.0485C330.164 77.2468 334.573 81.6793 341.528 81.6794C346.166 81.6794 349.758 79.7615 351.162 76.0836L364.028 76.901C362.069 85.8598 353.709 91.6754 341.3 91.6754C325.853 91.6754 316.416 82.1188 316.416 66.8102C316.416 51.9105 325.985 41.82 340.745 41.82ZM393.779 41.82C406.45 41.8201 413.895 47.3216 415.136 56.2174L402.4 56.9713C401.715 53.8595 398.841 51.3133 394.008 51.3131C389.697 51.3131 386.3 53.1995 386.333 56.0915C386.3 58.4176 388.031 59.9578 392.701 60.9323L401.779 62.693C411.511 64.6105 416.247 68.7909 416.279 75.7692C416.247 85.2938 406.94 91.6753 393.942 91.6754C380.651 91.6754 372.487 85.9855 371.181 76.7438L384.863 76.0524C385.712 79.9816 389.011 82.025 393.975 82.0251C398.84 82.0251 402.073 79.9813 402.139 77.1208C402.073 74.7005 400.081 73.1599 395.705 72.3112L387.019 70.6452C377.222 68.7591 372.487 64.0752 372.52 56.8454C372.487 47.5411 380.946 41.82 393.779 41.82ZM76.6602 25.4743C92.1393 25.4743 103.83 34.0247 105.691 48.8932H91.3887C90.311 41.8205 84.7259 37.5133 76.9863 37.5133C66.6344 37.5135 59.8418 45.1527 59.8418 58.5436C59.8419 72.3117 66.7326 79.5729 76.8887 79.5729C84.4323 79.5729 90.0497 75.6123 91.3887 68.7282L105.691 68.7907C104.157 80.6415 93.8048 91.612 76.6602 91.612C58.7645 91.612 45.506 79.5416 45.5059 58.5436C45.5059 37.4825 58.993 25.4743 76.6602 25.4743ZM185.88 70.8024C185.913 76.492 189.309 80.0446 194.566 80.0446C199.563 80.0445 204.167 76.6496 204.135 70.1745V42.4489H218.046V90.7321H204.689V81.9616H204.167C201.914 87.6198 196.493 91.361 188.949 91.361C178.859 91.3609 172.001 84.4768 171.968 73.192V42.4489H185.88V70.8024ZM255.233 41.7575C256.638 41.7575 258.368 41.9463 259.609 42.2292V54.111C258.303 53.7024 255.658 53.3883 253.731 53.3883C247.592 53.3884 243.086 57.4746 243.086 63.4157V90.7321H229.174V42.4489H242.661V50.8737H243.184C245.012 44.9013 249.617 41.7576 255.233 41.7575ZM138.299 52.0368C131.278 52.037 127.686 58.2609 127.686 66.6852C127.686 75.1093 131.278 81.3012 138.299 81.3014C145.189 81.3014 148.782 75.1094 148.782 66.6852C148.782 58.2608 145.189 52.0368 138.299 52.0368ZM340.974 51.8161C334.802 51.8161 330.458 56.2174 330.164 61.7184H351.228C351.195 55.966 347.015 51.8162 340.974 51.8161Z" fill="#474747"/>
</svg>
