<svg width="44" height="43" viewBox="0 0 44 43" fill="none" xmlns="http://www.w3.org/2000/svg">
<path d="M18.802 42.5612C9.09533 41.2188 0.133875 32.2473 0.840855 20.0793C1.49051 8.90591 10.9488 0.146855 21.6968 0.0019978C32.9703 -0.152517 42.4954 8.67414 43.1546 20.1275C43.8425 32.0831 35.0816 41.2961 24.9069 42.6288V27.1193C25.6807 27.1193 26.4546 27.1193 27.2284 27.1193C27.7443 27.1193 28.2602 27.1387 28.7666 27.0904C29.7411 26.9938 30.4194 26.3661 30.6105 25.4004C30.706 24.9078 30.7824 24.4153 30.8398 23.9132C30.9926 22.4839 30.1519 21.5085 28.7284 21.4796C27.6201 21.4506 26.5119 21.4796 25.4037 21.4796C25.2508 21.4796 25.1075 21.4796 24.9833 21.4796C24.9355 21.4313 24.8973 21.4023 24.8973 21.3733C24.9546 19.7413 24.8782 18.0802 25.117 16.4771C25.375 14.7002 26.4068 13.9856 28.1743 13.9856C28.394 13.9856 28.6042 13.9856 28.8239 13.9856C30.2283 13.9083 31.2792 12.7978 31.2697 11.3975C31.2697 10.0068 30.2474 8.90591 28.843 8.85763C27.7539 8.819 26.6552 8.819 25.5661 8.87694C24.4674 8.93488 23.4165 9.25357 22.442 9.79437C20.5312 10.8663 19.509 12.5853 19.1459 14.6809C18.9166 16.0426 18.8975 17.4429 18.8306 18.8238C18.7924 19.6833 18.8306 20.5525 18.8306 21.4699C17.7702 21.4699 16.7575 21.4699 15.7543 21.4699C15.3913 21.4699 15.0187 21.4892 14.6747 21.5858C13.3468 21.9431 12.5443 23.1599 12.6589 24.5988C12.764 25.8832 13.8054 26.9745 15.1238 27.0711C16.146 27.1387 17.1778 27.1 18.2001 27.1097C18.3912 27.1097 18.5918 27.1097 18.802 27.1097V42.5612Z" fill="white"/>
</svg>
