<svg width="70" height="70" viewBox="0 0 70 70" fill="none" xmlns="http://www.w3.org/2000/svg">
<circle cx="35" cy="35" r="35" fill="#FAEDFF"/>
<path d="M31.936 38.5721C31.7307 38.5723 31.5303 38.5092 31.362 38.3914C31.1938 38.2737 31.0659 38.107 30.9957 37.914C30.9255 37.721 30.9164 37.5111 30.9696 37.3128C31.0229 37.1144 31.1359 36.9373 31.2934 36.8055L37.4227 31.6628C37.523 31.5761 37.6395 31.5102 37.7655 31.4689C37.8915 31.4276 38.0244 31.4118 38.1566 31.4224C38.2888 31.433 38.4175 31.4697 38.5353 31.5305C38.6531 31.5913 38.7577 31.6749 38.8429 31.7765C38.9281 31.878 38.9923 31.9955 39.0317 32.1221C39.0711 32.2487 39.0849 32.3819 39.0723 32.5139C39.0598 32.6458 39.0211 32.774 38.9586 32.8909C38.896 33.0078 38.8109 33.1111 38.708 33.1948L32.5787 38.3375C32.3993 38.4889 32.1722 38.572 31.9374 38.5721H31.936Z" fill="#BD03FC"/>
<path d="M46.3854 31.9734L47.4067 31.1161C47.884 30.7148 48.1774 30.1521 48.232 29.5321C48.2595 29.2269 48.2262 28.9192 48.1339 28.627C48.0417 28.3347 47.8924 28.0636 47.6947 27.8294L44.2667 23.7441C44.0701 23.5091 43.8289 23.3152 43.557 23.1738C43.2852 23.0324 42.988 22.9462 42.6827 22.9201C42.3772 22.892 42.0692 22.925 41.7766 23.0173C41.4841 23.1096 41.2128 23.2592 40.9787 23.4574L39.9574 24.3148C39.8694 24.3881 39.7974 24.4721 39.724 24.5548L39.488 24.2734C39.2914 24.0384 39.0502 23.8446 38.7784 23.7032C38.5065 23.5617 38.2094 23.4755 37.904 23.4494C37.5987 23.4208 37.2908 23.4537 36.9984 23.5459C36.7059 23.6382 36.435 23.7881 36.2014 23.9868L34.1574 25.7001C33.6848 26.099 33.3893 26.6688 33.3356 27.285C33.2819 27.9011 33.4743 28.5134 33.8707 28.9881L40.728 37.1588C40.9471 37.4209 41.2212 37.6315 41.531 37.7755C41.8407 37.9196 42.1784 37.9935 42.52 37.9921C43.068 37.9921 43.592 37.8014 44.016 37.4454L46.0587 35.7321C47.044 34.9054 47.1734 33.4294 46.3467 32.4441L46.096 32.1454C46.192 32.0868 46.3 32.0508 46.388 31.9774L46.3854 31.9734ZM44.7707 34.1988L42.728 35.9121C42.66 35.968 42.5732 35.9957 42.4854 35.9894C42.3972 35.9812 42.3158 35.9386 42.2587 35.8708L35.4027 27.7014C35.346 27.6333 35.3184 27.5456 35.3259 27.4572C35.3334 27.3689 35.3754 27.2871 35.4427 27.2294L37.4867 25.5161C37.5461 25.4652 37.6218 25.4373 37.7 25.4374H37.7294C37.8172 25.4456 37.8983 25.4883 37.9547 25.5561L44.812 33.7268C44.8685 33.7949 44.8958 33.8825 44.8881 33.9706C44.8803 34.0587 44.8382 34.1402 44.7707 34.1974V34.1988ZM46.12 29.5841L45.0987 30.4414C45.0656 30.4705 45.0268 30.4924 44.9848 30.5057C44.9428 30.519 44.8985 30.5235 44.8547 30.5188C44.8111 30.5152 44.7687 30.5028 44.7299 30.4824C44.6912 30.462 44.657 30.434 44.6294 30.4001L41.2014 26.3161C41.1444 26.2483 41.1167 26.1607 41.1242 26.0725C41.1317 25.9843 41.1738 25.9027 41.2414 25.8454L42.2627 24.9881C42.3226 24.9371 42.3987 24.9092 42.4774 24.9094H42.5054C42.5574 24.9148 42.6547 24.9361 42.732 25.0281L46.16 29.1134C46.1884 29.1467 46.2098 29.1853 46.2228 29.227C46.2359 29.2687 46.2404 29.3126 46.236 29.3561C46.2326 29.3998 46.2205 29.4424 46.2003 29.4813C46.1802 29.5203 46.1524 29.5548 46.1187 29.5828L46.12 29.5841ZM29.2734 32.8428C29.0768 32.6077 28.8356 32.4139 28.5637 32.2725C28.2919 32.1311 27.9947 32.0448 27.6894 32.0188C27.3839 31.9904 27.0758 32.0233 26.7832 32.1155C26.4906 32.2078 26.2193 32.3576 25.9854 32.5561L23.9427 34.2694C23.4693 34.6678 23.1732 35.2376 23.1192 35.8539C23.0652 36.4703 23.2578 37.0829 23.6547 37.5574L23.8894 37.8374C23.7947 37.8961 23.7 37.9534 23.6134 38.0268L22.592 38.8841C22.3568 39.0807 22.1628 39.3218 22.0211 39.5937C21.8795 39.8655 21.793 40.1627 21.7667 40.4681C21.712 41.0894 21.904 41.6934 22.304 42.1708L25.732 46.2561C25.9511 46.5182 26.2252 46.7288 26.535 46.8729C26.8447 47.0169 27.1824 47.0909 27.524 47.0894C28.0721 47.0898 28.6025 46.8961 29.0214 46.5428L30.0427 45.6854C30.1307 45.6121 30.2027 45.5281 30.276 45.4454L30.512 45.7268C30.7311 45.9889 31.0052 46.1995 31.315 46.3435C31.6247 46.4876 31.9624 46.5615 32.304 46.5601C32.852 46.5601 33.376 46.3694 33.8 46.0134L35.8427 44.3001C36.8267 43.4734 36.9547 41.9988 36.1294 41.0121L29.272 32.8414L29.2734 32.8428ZM28.7574 44.1548L27.736 45.0121C27.644 45.0908 27.5414 45.0894 27.4934 45.0894C27.4052 45.0812 27.3237 45.0386 27.2667 44.9708L23.8387 40.8854C23.8103 40.8522 23.789 40.8136 23.7759 40.7719C23.7628 40.7302 23.7584 40.6863 23.7627 40.6428C23.7661 40.5991 23.7783 40.5565 23.7984 40.5176C23.8186 40.4786 23.8463 40.4441 23.88 40.4161L24.9014 39.5588C24.9612 39.5078 25.0374 39.4799 25.116 39.4801H25.1454C25.189 39.4837 25.2314 39.4961 25.2701 39.5165C25.3089 39.5369 25.3431 39.5649 25.3707 39.5988L28.7987 43.6828C28.8557 43.7506 28.8834 43.8382 28.8759 43.9264C28.8684 44.0146 28.8263 44.0962 28.7587 44.1534L28.7574 44.1548ZM34.5574 42.7694L32.5147 44.4828C32.447 44.5391 32.3599 44.5663 32.2722 44.5586C32.1845 44.5508 32.1035 44.5087 32.0467 44.4414L25.1894 36.2708C25.1329 36.2027 25.1056 36.1151 25.1133 36.027C25.1211 35.9388 25.1633 35.8573 25.2307 35.8001L27.2734 34.0868C27.3332 34.0358 27.4094 34.0079 27.488 34.0081H27.516C27.568 34.0134 27.6654 34.0348 27.7427 34.1268L34.5987 42.2961C34.6554 42.3643 34.683 42.452 34.6755 42.5403C34.668 42.6286 34.6261 42.7105 34.5587 42.7681L34.5574 42.7694Z" fill="#BD03FC"/>
</svg>
