<svg width="70" height="70" viewBox="0 0 70 70" fill="none" xmlns="http://www.w3.org/2000/svg">
<circle cx="35" cy="35" r="35" fill="#FAEDFF"/>
<path d="M32.3333 48H27C26.7348 48 26.4804 47.8946 26.2929 47.7071C26.1054 47.5196 26 47.2652 26 47V40.3333C26 39.0467 27.0467 38 28.3333 38H31C32.2867 38 33.3333 39.0467 33.3333 40.3333V47C33.3333 47.2652 33.228 47.5196 33.0404 47.7071C32.8529 47.8946 32.5985 48 32.3333 48ZM28 46H31.3333V40.3333C31.3333 40.2449 31.2982 40.1601 31.2357 40.0976C31.1732 40.0351 31.0884 40 31 40H28.3333C28.2449 40 28.1601 40.0351 28.0976 40.0976C28.0351 40.1601 28 40.2449 28 40.3333V46Z" fill="#BD03FC"/>
<path d="M44.3333 30H39C38.3973 30 37.836 30.16 37.3333 30.42V25.6667C37.3326 24.6944 36.9461 23.7622 36.2586 23.0747C35.5711 22.3872 34.6389 22.0007 33.6667 22H25.6667C24.6944 22.0007 23.7622 22.3872 23.0747 23.0747C22.3872 23.7622 22.0007 24.6944 22 25.6667V45.6667C22 46.9533 23.0467 48 24.3333 48H45.6667C46.9533 48 48 46.9533 48 45.6667V33.6667C47.9993 32.6944 47.6128 31.7622 46.9253 31.0747C46.2378 30.3872 45.3056 30.0007 44.3333 30ZM24 45.6667V25.6667C24 24.748 24.748 24 25.6667 24H33.6667C34.5853 24 35.3333 24.748 35.3333 25.6667V46H24.3333C24.2449 46 24.1601 45.9649 24.0976 45.9024C24.0351 45.8399 24 45.7551 24 45.6667ZM46 45.6667C46 45.7551 45.9649 45.8399 45.9024 45.9024C45.8399 45.9649 45.7551 46 45.6667 46H37.3333V33.6667C37.3333 32.748 38.0813 32 39 32H44.3333C45.252 32 46 32.748 46 33.6667V45.6667Z" fill="#BD03FC"/>
<path d="M31 32.6666H28.3334C28.0682 32.6666 27.8138 32.7719 27.6263 32.9595C27.4387 33.147 27.3334 33.4014 27.3334 33.6666C27.3334 33.9318 27.4387 34.1862 27.6263 34.3737C27.8138 34.5612 28.0682 34.6666 28.3334 34.6666H31C31.2653 34.6666 31.5196 34.5612 31.7071 34.3737C31.8947 34.1862 32 33.9318 32 33.6666C32 33.4014 31.8947 33.147 31.7071 32.9595C31.5196 32.7719 31.2653 32.6666 31 32.6666ZM43 40.6666H40.3334C40.0682 40.6666 39.8138 40.7719 39.6263 40.9595C39.4387 41.147 39.3334 41.4014 39.3334 41.6666C39.3334 41.9318 39.4387 42.1862 39.6263 42.3737C39.8138 42.5612 40.0682 42.6666 40.3334 42.6666H43C43.2653 42.6666 43.5196 42.5612 43.7071 42.3737C43.8947 42.1862 44 41.9318 44 41.6666C44 41.4014 43.8947 41.147 43.7071 40.9595C43.5196 40.7719 43.2653 40.6666 43 40.6666ZM43 35.3333H40.3334C40.0682 35.3333 39.8138 35.4386 39.6263 35.6261C39.4387 35.8137 39.3334 36.068 39.3334 36.3333C39.3334 36.5985 39.4387 36.8528 39.6263 37.0404C39.8138 37.2279 40.0682 37.3333 40.3334 37.3333H43C43.2653 37.3333 43.5196 37.2279 43.7071 37.0404C43.8947 36.8528 44 36.5985 44 36.3333C44 36.068 43.8947 35.8137 43.7071 35.6261C43.5196 35.4386 43.2653 35.3333 43 35.3333ZM31 27.3333H28.3334C28.0682 27.3333 27.8138 27.4386 27.6263 27.6261C27.4387 27.8137 27.3334 28.068 27.3334 28.3333C27.3334 28.5985 27.4387 28.8528 27.6263 29.0404C27.8138 29.2279 28.0682 29.3333 28.3334 29.3333H31C31.2653 29.3333 31.5196 29.2279 31.7071 29.0404C31.8947 28.8528 32 28.5985 32 28.3333C32 28.068 31.8947 27.8137 31.7071 27.6261C31.5196 27.4386 31.2653 27.3333 31 27.3333Z" fill="#BD03FC"/>
</svg>
