<svg width="43" height="43" viewBox="0 0 43 43" fill="none" xmlns="http://www.w3.org/2000/svg">
<path d="M21.6863 2.92127e-05C10.0307 -0.0192851 0.562866 9.54131 0.524651 21.352C0.486436 33.1338 9.97335 42.7427 21.6672 42.762C33.3228 42.7813 42.8097 33.2014 42.8288 21.3907C42.8384 9.59926 33.3706 0.0193436 21.6863 2.92127e-05ZM34.1636 26.1806C34.154 27.4167 34.0011 28.6432 33.5235 29.8021C32.6158 31.9556 31.0012 33.2497 28.7561 33.7615C27.4759 34.0512 26.167 34.0512 24.8582 34.0609C22.5557 34.0705 20.2532 34.0705 17.9508 34.0609C16.7757 34.0512 15.591 34.0319 14.435 33.7325C11.6166 32.9986 9.95424 31.1541 9.39057 28.2859C9.16128 27.127 9.16128 25.9585 9.14217 24.79C9.12306 23.6504 9.14217 22.5206 9.14217 21.381H9.11351C9.14217 19.7779 9.16128 18.1652 9.18994 16.5621C9.2186 15.326 9.35236 14.1188 9.84915 12.9696C10.7377 10.874 12.314 9.59926 14.4923 9.06811C15.8203 8.74943 17.1769 8.74943 18.524 8.73977C20.6832 8.72046 22.8423 8.72046 25.0015 8.73977C26.167 8.74943 27.3326 8.7784 28.4886 8.9812C31.3834 9.50269 33.4757 11.6176 33.982 14.5341C34.1731 15.6543 34.2209 16.7939 34.2209 17.9334C34.2209 20.6857 34.2113 23.4476 34.1827 26.1999L34.1636 26.1806Z" fill="white"/>
<path d="M31.6605 14.5924C31.3357 13.0859 30.4472 12.0236 29.0045 11.4635C28.3358 11.2027 27.6383 11.0869 26.9314 11.0675C25.1926 11.0193 23.4442 10.9903 21.7054 10.9517C21.7054 10.9806 21.7054 10.9999 21.7054 11.0289C20.2437 11.0289 18.7724 11.0096 17.3107 11.0289C16.5942 11.0482 15.8681 11.1062 15.1611 11.2414C13.5369 11.5601 12.3905 12.4871 11.8268 14.0999C11.6071 14.718 11.5115 15.365 11.4829 16.0217C11.3396 19.3341 11.3682 22.6562 11.4542 25.9782C11.4733 26.6446 11.5307 27.3302 11.6549 27.9869C12.0179 29.8121 13.0975 30.9903 14.884 31.4732C15.6388 31.676 16.4222 31.7339 17.1961 31.7339C20.1864 31.7436 23.1767 31.7532 26.1671 31.7339C26.8454 31.7339 27.5428 31.6566 28.2116 31.5311C29.893 31.1931 31.0586 30.2177 31.565 28.5374C31.7369 27.9579 31.842 27.3495 31.8707 26.7411C32.0235 23.4287 31.9949 20.1067 31.9089 16.7846C31.8898 16.0506 31.8134 15.307 31.6605 14.5924ZM21.6768 27.8903C18.1228 27.8903 15.2184 24.9546 15.228 21.3717C15.2375 17.7793 18.1132 14.8725 21.6672 14.8725C25.2212 14.8725 28.1256 17.7986 28.116 21.3911C28.1065 24.9835 25.2308 27.8903 21.6768 27.9V27.8903ZM28.3644 16.1279C27.5237 16.1279 26.8645 15.4422 26.874 14.5924C26.874 13.7522 27.5619 13.0762 28.3931 13.0859C29.2243 13.0859 29.893 13.7909 29.8835 14.631C29.8739 15.4616 29.1956 16.1279 28.374 16.1279H28.3644Z" fill="white"/>
<path d="M21.6863 17.1611C19.3647 17.1611 17.5017 19.025 17.5017 21.3717C17.5017 23.7087 19.3551 25.6015 21.6767 25.6015C23.9983 25.6015 25.8613 23.7184 25.8517 21.3813C25.8517 19.0443 23.9983 17.1708 21.6863 17.1611Z" fill="white"/>
</svg>
