<svg width="44" height="43" viewBox="0 0 44 43" fill="none" xmlns="http://www.w3.org/2000/svg">
<path d="M21.8558 42.8609C18.0438 42.8609 14.2318 42.8706 10.4294 42.8609C9.36897 42.8609 8.30848 42.803 7.26712 42.5809C4.00928 41.8759 1.36288 39.3457 0.818316 35.5988C0.655901 34.5075 0.627243 33.3969 0.627243 32.296C0.608135 25.1207 0.617689 17.9358 0.627243 10.7605C0.627243 9.5437 0.646346 8.31724 0.846976 7.11009C1.4202 3.63351 3.88509 1.02607 7.29579 0.282472C8.24162 0.0700145 9.2161 0.0603573 10.181 0.0120715C10.5059 -0.00724288 10.8211 0.00241429 11.146 0.00241429C18.2158 0.00241429 25.2856 0.00241429 32.3554 0.00241429C33.5401 0.00241429 34.7343 0.00241429 35.8998 0.214872C39.3488 0.832931 41.613 2.82231 42.6448 6.22163C42.8837 7.00386 42.9601 7.81507 42.9888 8.63593C43.027 9.83342 43.0652 11.0309 43.0652 12.2284C43.0652 16.4776 43.0652 20.7267 43.0652 24.9662C43.0652 27.5157 43.0747 30.0652 43.0556 32.6147C43.0461 33.5997 42.9983 34.5944 42.8646 35.5698C42.3678 39.2685 39.7787 41.6828 36.9603 42.465C36.3106 42.6485 35.661 42.7644 34.9922 42.803C34.161 42.8513 33.3394 42.8899 32.5083 42.8996C28.9638 42.9092 25.4193 42.8996 21.8749 42.8996L21.8558 42.8609ZM22.5532 19.6161C22.5532 19.6161 22.5054 19.5968 22.4768 19.5872V17.2694C22.0182 17.1922 17.91 17.2115 17.6616 17.2888V34.3723C17.9769 34.4496 22.4863 34.4495 22.792 34.3626C22.792 34.2371 22.792 34.0922 22.792 33.957C22.792 31.1082 22.792 28.2593 22.792 25.4008C22.792 24.6185 22.964 23.8749 23.3748 23.2086C23.7379 22.6002 24.2633 22.1849 24.9321 21.9532C25.5435 21.7407 26.1645 21.6828 26.8046 21.76C28.1135 21.9145 29.0402 22.7451 29.3268 24.0391C29.4128 24.4254 29.4415 24.8213 29.451 25.2173C29.451 28.1627 29.451 31.1082 29.451 34.0439C29.451 34.1598 29.451 34.2661 29.451 34.3723C29.8905 34.4496 34.333 34.4302 34.6005 34.3433C34.6005 34.2467 34.6005 34.1405 34.6005 34.0439C34.6005 30.4708 34.6005 26.8976 34.6005 23.3245C34.6005 23.0541 34.5814 22.7837 34.5432 22.5229C34.3712 21.4124 33.9318 20.408 33.349 19.4616C33.1006 19.0657 32.7853 18.7277 32.4223 18.438C31.0847 17.337 29.5657 16.8252 27.846 16.9121C25.7728 17.0087 24.0531 17.8392 22.6965 19.4423C22.6487 19.4906 22.6105 19.5389 22.5627 19.5968L22.5532 19.6161ZM9.51227 17.2501C9.43584 17.6074 9.44539 34.1405 9.51227 34.4013C10.0473 34.4785 14.4611 34.4496 14.7 34.3723C14.7669 33.619 14.7382 17.5205 14.6618 17.2501H9.50272H9.51227ZM15.1108 11.62C15.1108 9.93965 13.7637 8.57798 12.1014 8.57798C10.4294 8.57798 9.0728 9.9493 9.0728 11.6393C9.0728 13.31 10.4294 14.6813 12.0822 14.6813C13.7446 14.6813 15.1108 13.31 15.1012 11.6103L15.1108 11.62Z" fill="white"/>
</svg>
