<svg width="337" height="82" viewBox="0 0 337 82" fill="none" xmlns="http://www.w3.org/2000/svg">
<path d="M25.9723 26.0247C25.9723 37.1441 32.0183 46.848 41 52.0494C49.9817 46.8538 56.0277 37.1499 56.0277 26.0247C56.0277 14.8996 49.9758 5.19562 41 0C32.0183 5.19562 25.9723 14.8996 25.9723 26.0247Z" fill="white"/>
<path d="M26.0247 25.9727C14.9054 25.9727 5.20145 32.0187 0 41.0004C5.19562 49.982 14.8996 56.0281 26.0247 56.0281C37.1499 56.0281 46.848 49.982 52.0494 41.0004C46.8538 32.0187 37.1499 25.9727 26.0247 25.9727Z" fill="white"/>
<path d="M55.9753 25.9727C44.8559 25.9727 35.152 32.0187 29.9506 41.0004C35.1462 49.982 44.8501 56.0281 55.9753 56.0281C67.1004 56.0281 76.7986 49.982 82 41.0004C76.8044 32.0187 67.1004 25.9727 55.9753 25.9727Z" fill="white"/>
<path d="M25.9723 55.9754C25.9723 67.0947 32.0183 76.7987 41 82.0001C49.9817 76.8045 56.0277 67.1006 56.0277 55.9754C56.0277 44.8502 49.9817 35.1521 41 29.9507C32.0183 35.1463 25.9723 44.8502 25.9723 55.9754Z" fill="white"/>
<g style="mix-blend-mode:multiply">
<path d="M55.9753 25.9727C44.8559 25.9727 35.152 32.0187 29.9506 41.0004C35.1462 49.982 44.8501 56.0281 55.9753 56.0281C67.1004 56.0281 76.7986 49.982 82 41.0004C76.8044 32.0187 67.1004 25.9727 55.9753 25.9727Z" fill="#FF74BF"/>
</g>
<g style="mix-blend-mode:multiply">
<path d="M26.0247 25.9727C14.9054 25.9727 5.20145 32.0187 0 41.0004C5.19562 49.982 14.8996 56.0281 26.0247 56.0281C37.1499 56.0281 46.848 49.982 52.0494 41.0004C46.8538 32.0187 37.1499 25.9727 26.0247 25.9727Z" fill="#FFE625"/>
</g>
<g style="mix-blend-mode:multiply">
<path d="M25.9723 26.0247C25.9723 37.1441 32.0183 46.848 41 52.0494C49.9817 46.8538 56.0277 37.1499 56.0277 26.0247C56.0277 14.8996 49.9758 5.19562 41 0C32.0183 5.19562 25.9723 14.8996 25.9723 26.0247Z" fill="#64D3FF"/>
</g>
<g style="mix-blend-mode:multiply">
<path d="M25.9723 55.9754C25.9723 67.0947 32.0183 76.7987 41 82.0001C49.9817 76.8045 56.0277 67.1006 56.0277 55.9754C56.0277 44.8502 49.9817 35.1521 41 29.9507C32.0183 35.1463 25.9723 44.8502 25.9723 55.9754Z" fill="#87FF3B"/>
</g>
<path d="M40.8777 29.0886C43.1552 29.0886 45.0015 27.2423 45.0015 24.9647C45.0015 22.6871 43.1552 20.8408 40.8777 20.8408C38.6001 20.8408 36.7538 22.6871 36.7538 24.9647C36.7538 27.2423 38.6001 29.0886 40.8777 29.0886Z" fill="black"/>
<path d="M40.9592 61.0896C43.2368 61.0896 45.0831 59.2432 45.0831 56.9657C45.0831 54.6881 43.2368 52.8418 40.9592 52.8418C38.6817 52.8418 36.8353 54.6881 36.8353 56.9657C36.8353 59.2432 38.6817 61.0896 40.9592 61.0896Z" fill="black"/>
<path d="M24.9355 45.0481C27.213 45.0481 29.0593 43.2017 29.0593 40.9242C29.0593 38.6466 27.213 36.8003 24.9355 36.8003C22.6579 36.8003 20.8116 38.6466 20.8116 40.9242C20.8116 43.2017 22.6579 45.0481 24.9355 45.0481Z" fill="black"/>
<path d="M57.1577 45.0481C59.4352 45.0481 61.2816 43.2017 61.2816 40.9242C61.2816 38.6466 59.4352 36.8003 57.1577 36.8003C54.8801 36.8003 53.0338 38.6466 53.0338 40.9242C53.0338 43.2017 54.8801 45.0481 57.1577 45.0481Z" fill="black"/>
<path d="M97.5448 35.2354L103.919 35.0049H116.707V38.0912H97.5448V35.2354ZM103.821 33.1111C103.821 27.6701 106.63 24.0327 112.68 24.0327C114.851 24.0327 116.923 24.4435 119.005 25.3253L118.151 28.1811C116.344 27.3995 114.939 27.119 113.044 27.119C109.115 27.119 107.534 29.3735 107.534 32.9708V57.4002H103.831V33.1111H103.821Z" fill="white"/>
<path d="M120.223 35.0052H123.337L123.7 40.3059H123.789C126.097 36.6686 129.524 34.4541 133.591 34.4541C135.221 34.4541 136.576 34.6846 137.932 35.376L137.077 38.6526C135.545 38.1416 134.73 37.9111 133.011 37.9111C129.711 37.9111 126.598 39.6145 123.975 44.314V57.4105H120.223V35.0052Z" fill="white"/>
<path d="M150.494 38.0911H140.328V35.0049H154.246V57.4102H150.494V38.0911Z" fill="white"/>
<path d="M161.023 46.1578C161.023 38.873 166.356 34.4541 172.229 34.4541C178.555 34.4541 182.257 38.6526 182.257 44.9654C182.257 45.8471 182.169 46.6688 182.081 47.27H163.508V44.3241H179.861L178.908 45.3862C178.908 40.0855 176.335 37.4602 172.308 37.4602C168.281 37.4602 164.716 40.5965 164.716 46.1678C164.716 51.7391 168.419 54.9255 173.3 54.9255C175.922 54.9255 177.995 54.0938 179.989 52.8012L181.344 55.2862C179.173 56.7592 176.374 57.9617 172.848 57.9617C166.248 57.9617 161.013 53.6329 161.013 46.1578H161.023Z" fill="white"/>
<path d="M189.26 35.0052H192.335L192.649 38.7829H192.826C195.134 36.3379 197.658 34.4541 201.096 34.4541C206.291 34.4541 208.688 37.5904 208.688 43.4924V57.4105H204.936V43.9934C204.936 39.7548 203.492 37.7708 199.917 37.7708C197.295 37.7708 195.536 39.1035 193.002 41.7789V57.4105H189.251V35.0052H189.26Z" fill="white"/>
<path d="M214.875 46.2473C214.875 38.9626 219.619 34.4434 224.815 34.4434C227.437 34.4434 229.471 35.5056 231.415 37.2992H231.504L231.327 33.2009V24.5835H235.079V57.4099H232.005L231.69 54.4639H231.553C229.746 56.3578 227.123 57.971 224.373 57.971C218.676 57.971 214.885 53.7325 214.885 46.2674L214.875 46.2473ZM231.317 51.4078V40.2552C229.333 38.3614 227.477 37.67 225.581 37.67C221.79 37.67 218.716 41.0769 218.716 46.1972C218.716 51.3176 221.152 54.7245 225.178 54.7245C227.349 54.7245 229.382 53.6222 231.327 51.4078H231.317Z" fill="white"/>
<path d="M241.62 52.8912C249.252 46.5283 254.86 41.6485 254.86 37.6804C254.86 35.0551 253.229 33.8126 250.705 33.8126C248.584 33.8126 246.904 35.1954 245.372 36.5782L241.257 32.3396C244.37 29.1131 247.268 27.6401 251.786 27.6401C257.934 27.6401 262.226 31.4178 262.226 37.2295C262.226 41.929 257.433 47.0995 252.738 51.1477C254.32 50.9673 256.49 50.7769 257.885 50.7769H263.67V57.4104H241.62V52.8912Z" fill="#64D3FF"/>
<path d="M274.061 54.9148H273.924L273.56 57.3999H270.575V24.5835H274.327V33.5316L274.15 37.8704H274.287C276.271 35.7962 279.08 34.4635 281.654 34.4635C287.576 34.4635 290.778 38.9325 290.778 45.8465C290.778 53.502 286.083 57.971 280.878 57.971C278.707 57.971 276.085 56.8187 274.051 54.9249L274.061 54.9148ZM286.938 45.8766C286.938 40.9466 285.13 37.67 280.75 37.67C278.805 37.67 276.546 38.682 274.336 40.9867V52.1392C276.369 54.0331 278.678 54.7245 280.259 54.7245C284.05 54.7245 286.947 51.4078 286.947 45.8766H286.938Z" fill="white"/>
<path d="M304.106 38.0911H293.94V35.0049H307.858V57.4102H304.106V38.0911Z" fill="white"/>
<path d="M315.666 55.3761L330.664 38.0911H317.336V35.0049H336.046V37.029L321.049 54.2739H336.459V57.4102H315.676V55.3861L315.666 55.3761Z" fill="white"/>
<path d="M305.599 30.2952C307.248 30.2952 308.585 28.9763 308.585 27.3493C308.585 25.7223 307.248 24.4033 305.599 24.4033C303.95 24.4033 302.613 25.7223 302.613 27.3493C302.613 28.9763 303.95 30.2952 305.599 30.2952Z" fill="#87FF3B"/>
<path d="M149.001 27.3493C149.001 25.5957 150.268 24.4033 151.987 24.4033C153.706 24.4033 154.973 25.6058 154.973 27.3493C154.973 29.0928 153.706 30.2952 151.987 30.2952C150.268 30.2952 149.001 29.1429 149.001 27.3493Z" fill="#FF74BF"/>
</svg>
