<svg width="238" height="58" viewBox="0 0 238 58" fill="none" xmlns="http://www.w3.org/2000/svg">
<g clip-path="url(#clip0_31222_472)">
<g style="mix-blend-mode:multiply">
<path d="M39.5951 18.3719C31.7296 18.3719 24.8654 22.6487 21.186 29.0021C24.8612 35.3554 31.7255 39.6322 39.5951 39.6322C47.4646 39.6322 54.3248 35.3554 58.0041 29.0021C54.3289 22.6487 47.4646 18.3719 39.5951 18.3719Z" fill="#FF74BF"/>
</g>
<g style="mix-blend-mode:multiply">
<path d="M18.409 18.3719C10.5436 18.3719 3.67933 22.6487 0 29.0021C3.67521 35.3554 10.5395 39.6322 18.409 39.6322C26.2786 39.6322 33.1387 35.3554 36.8181 29.0021C33.1429 22.6487 26.2786 18.3719 18.409 18.3719Z" fill="#FFE625"/>
</g>
<g style="mix-blend-mode:multiply">
<path d="M18.3719 18.409C18.3719 26.2745 22.6487 33.1387 29.0021 36.8181C35.3554 33.1429 39.6322 26.2786 39.6322 18.409C39.6322 10.5395 35.3513 3.67521 29.0021 0C22.6487 3.67521 18.3719 10.5395 18.3719 18.409Z" fill="#64D3FF"/>
</g>
<g style="mix-blend-mode:multiply">
<path d="M18.3719 39.5951C18.3719 47.4605 22.6487 54.3248 29.0021 58.0041C35.3554 54.3289 39.6322 47.4647 39.6322 39.5951C39.6322 31.7255 35.3554 24.8654 29.0021 21.1861C22.6487 24.8613 18.3719 31.7255 18.3719 39.5951Z" fill="#87FF3B"/>
</g>
<path d="M28.9155 20.5763C30.5266 20.5763 31.8326 19.2702 31.8326 17.6592C31.8326 16.0481 30.5266 14.7421 28.9155 14.7421C27.3044 14.7421 25.9984 16.0481 25.9984 17.6592C25.9984 19.2702 27.3044 20.5763 28.9155 20.5763Z" fill="white"/>
<path d="M28.9732 43.2126C30.5843 43.2126 31.8903 41.9066 31.8903 40.2955C31.8903 38.6844 30.5843 37.3784 28.9732 37.3784C27.3621 37.3784 26.0561 38.6844 26.0561 40.2955C26.0561 41.9066 27.3621 43.2126 28.9732 43.2126Z" fill="white"/>
<path d="M17.6385 31.8656C19.2496 31.8656 20.5556 30.5596 20.5556 28.9485C20.5556 27.3374 19.2496 26.0314 17.6385 26.0314C16.0275 26.0314 14.7214 27.3374 14.7214 28.9485C14.7214 30.5596 16.0275 31.8656 17.6385 31.8656Z" fill="white"/>
<path d="M40.4315 31.8656C42.0426 31.8656 43.3486 30.5596 43.3486 28.9485C43.3486 27.3374 42.0426 26.0314 40.4315 26.0314C38.8204 26.0314 37.5144 27.3374 37.5144 28.9485C37.5144 30.5596 38.8204 31.8656 40.4315 31.8656Z" fill="white"/>
</g>
<g clip-path="url(#clip1_31222_472)">
<path d="M69 24.9244L73.509 24.7614H82.5547V26.9445H69V24.9244ZM73.4395 23.4217C73.4395 19.5729 75.4265 17 79.7062 17C81.2416 17 82.7076 17.2906 84.1805 17.9144L83.576 19.9344C82.2977 19.3816 81.3042 19.1831 79.9633 19.1831C77.1843 19.1831 76.0657 20.7779 76.0657 23.3225V40.6031H73.4465V23.4217H73.4395Z" fill="black"/>
<path d="M85.042 24.7614H87.2444L87.5014 28.5109H87.564C89.1966 25.938 91.6214 24.3715 94.4977 24.3715C95.651 24.3715 96.6097 24.5346 97.5685 25.0236L96.964 27.3414C95.8802 26.9799 95.3036 26.8169 94.0877 26.8169C91.7534 26.8169 89.551 28.0219 87.696 31.3461V40.6102H85.042V24.7614Z" fill="black"/>
<path d="M106.454 26.9445H99.2637V24.7614H109.108V40.6102H106.454V26.9445Z" fill="black"/>
<path d="M113.902 32.6503C113.902 27.4973 117.675 24.3715 121.829 24.3715C126.304 24.3715 128.923 27.3414 128.923 31.8069C128.923 32.4306 128.86 33.0118 128.798 33.4371H115.66V31.3532H127.228L126.554 32.1046C126.554 28.355 124.733 26.4979 121.885 26.4979C119.036 26.4979 116.515 28.7165 116.515 32.6574C116.515 36.5984 119.134 38.8523 122.587 38.8523C124.442 38.8523 125.908 38.264 127.318 37.3497L128.277 39.1075C126.741 40.1494 124.761 41 122.267 41C117.598 41 113.895 37.938 113.895 32.6503H113.902Z" fill="black"/>
<path d="M133.877 24.7614H136.051L136.273 27.4336H136.399C138.031 25.7041 139.817 24.3715 142.248 24.3715C145.924 24.3715 147.619 26.5901 147.619 30.7649V40.6102H144.965V31.1193C144.965 28.1211 143.944 26.7177 141.415 26.7177C139.56 26.7177 138.316 27.6604 136.524 29.5529V40.6102H133.87V24.7614H133.877Z" fill="black"/>
<path d="M151.996 32.7141C151.996 27.5611 155.352 24.3644 159.027 24.3644C160.882 24.3644 162.32 25.1158 163.696 26.3845H163.758L163.633 23.4855V17.3898H166.287V40.6102H164.112L163.89 38.5263H163.793C162.514 39.8659 160.659 41.0071 158.714 41.0071C154.685 41.0071 152.003 38.0089 152.003 32.7283L151.996 32.7141ZM163.626 36.3644V28.4755C162.223 27.1359 160.91 26.6468 159.569 26.6468C156.887 26.6468 154.712 29.0567 154.712 32.6787C154.712 36.3007 156.435 38.7106 159.284 38.7106C160.819 38.7106 162.257 37.9309 163.633 36.3644H163.626Z" fill="black"/>
<g style="mix-blend-mode:multiply">
<path d="M170.914 37.4135C176.312 32.9126 180.279 29.4607 180.279 26.6539C180.279 24.7968 179.126 23.9179 177.341 23.9179C175.84 23.9179 174.652 24.896 173.568 25.8742L170.657 22.876C172.859 20.5936 174.909 19.5517 178.105 19.5517C182.454 19.5517 185.49 22.2239 185.49 26.3349C185.49 29.6592 182.1 33.3166 178.779 36.1802C179.897 36.0526 181.433 35.9179 182.419 35.9179H186.511V40.6102H170.914V37.4135Z" fill="#64D3FF"/>
</g>
<path d="M193.862 38.8453H193.765L193.508 40.6031H191.396V17.3898H194.05V23.7194L193.925 26.7885H194.022C195.425 25.3213 197.412 24.3786 199.233 24.3786C203.422 24.3786 205.687 27.5399 205.687 32.4306C205.687 37.8458 202.366 41.0071 198.684 41.0071C197.148 41.0071 195.293 40.192 193.855 38.8523L193.862 38.8453ZM202.97 32.4519C202.97 28.9646 201.692 26.6468 198.593 26.6468C197.218 26.6468 195.62 27.3627 194.057 28.9929V36.8819C195.495 38.2215 197.127 38.7106 198.246 38.7106C200.928 38.7106 202.977 36.3644 202.977 32.4519H202.97Z" fill="black"/>
<path d="M215.115 26.9445H207.924V24.7614H217.769V40.6102H215.115V26.9445Z" fill="black"/>
<path d="M223.292 39.1713L233.901 26.9445H224.473V24.7614H237.708V26.1931L227.099 38.3916H238V40.6102H223.299V39.1784L223.292 39.1713Z" fill="black"/>
<g style="mix-blend-mode:multiply">
<path d="M216.171 21.43C217.337 21.43 218.283 20.497 218.283 19.3461C218.283 18.1952 217.337 17.2623 216.171 17.2623C215.004 17.2623 214.059 18.1952 214.059 19.3461C214.059 20.497 215.004 21.43 216.171 21.43Z" fill="#87FF3B"/>
</g>
<g style="mix-blend-mode:multiply">
<path d="M105.398 19.3461C105.398 18.1057 106.295 17.2623 107.51 17.2623C108.726 17.2623 109.623 18.1128 109.623 19.3461C109.623 20.5794 108.726 21.43 107.51 21.43C106.295 21.43 105.398 20.6149 105.398 19.3461Z" fill="#FF74BF"/>
</g>
</g>
<defs>
<clipPath id="clip0_31222_472">
<rect width="58" height="58" fill="white"/>
</clipPath>
<clipPath id="clip1_31222_472">
<rect width="169" height="24" fill="white" transform="translate(69 17)"/>
</clipPath>
</defs>
</svg>
