<svg width="70" height="70" viewBox="0 0 70 70" fill="none" xmlns="http://www.w3.org/2000/svg">
<circle cx="35" cy="35" r="35" fill="#FAEDFF"/>
<path d="M49.4218 47.2499H48.5V35.4647C48.9664 34.9907 49.2548 34.3411 49.2548 33.625C49.2548 32.1776 48.0773 31 46.6298 31C45.1824 31 44.0048 32.1776 44.0048 33.625C44.0048 34.3359 44.2893 34.9813 44.75 35.4545V35.6179C39.2541 40.6794 30.7459 40.6794 25.25 35.6179V35.4647C25.7164 34.9907 26.0049 34.3411 26.0049 33.625C26.0049 32.1776 24.8273 31 23.3799 31C21.9324 31 20.7549 32.1776 20.7549 33.625C20.7549 34.3359 21.0394 34.9813 21.5 35.4545V47.2499H20.5781C19.708 47.2499 19 47.9578 19 48.828V50.3749C19 50.72 19.2799 50.9999 19.625 50.9999H27.125C27.4701 50.9999 27.75 50.72 27.75 50.3749V48.828C27.75 47.9578 27.042 47.2499 26.1719 47.2499H25.25V37.2649C28.0112 39.4724 31.4132 40.6718 35 40.6718C38.5868 40.6718 41.9888 39.4724 44.75 37.2649V45.4061C44.75 45.7512 45.0298 46.0311 45.375 46.0311C45.7201 46.0311 46 45.7512 46 45.4061V36.1731C46.206 36.2241 46.4175 36.25 46.6298 36.25C46.8435 36.25 47.051 36.2237 47.25 36.1754V47.2499H46V44.6873C46 44.3422 45.7201 44.0624 45.375 44.0624C45.0298 44.0624 44.75 44.3422 44.75 44.6873V47.2499H43.8281C42.9579 47.2499 42.25 47.9578 42.25 48.828V50.3749C42.25 50.72 42.5298 50.9999 42.875 50.9999H50.3749C50.7201 50.9999 50.9999 50.72 50.9999 50.3749V48.828C50.9999 47.9578 50.2921 47.2499 49.4218 47.2499ZM23.3799 32.25C24.1381 32.25 24.7549 32.8668 24.7549 33.625C24.7549 34.3831 24.1381 35 23.3799 35C22.6217 35 22.0049 34.3832 22.0049 33.625C22.0049 32.8669 22.6217 32.25 23.3799 32.25ZM24 36.1754V47.2499H22.75V36.1731C22.9561 36.2241 23.1676 36.25 23.3799 36.25C23.5936 36.25 23.8011 36.2237 24 36.1754ZM26.1719 48.4999C26.2589 48.5 26.3423 48.5346 26.4038 48.5961C26.4653 48.6576 26.4999 48.741 26.5 48.828V49.7499H20.25V48.828C20.2501 48.741 20.2847 48.6576 20.3462 48.5961C20.4077 48.5346 20.4911 48.5 20.5781 48.4999H26.1719ZM46.63 35C45.8718 35 45.255 34.3832 45.255 33.625C45.255 32.8668 45.8718 32.25 46.63 32.25C47.3881 32.25 48.0049 32.8668 48.0049 33.625C48.0049 34.3831 47.3881 35 46.63 35ZM49.7499 49.7499H43.5V48.828C43.5001 48.741 43.5347 48.6576 43.5962 48.5961C43.6577 48.5346 43.7411 48.5 43.8281 48.4999H49.4218C49.5088 48.5 49.5922 48.5346 49.6537 48.5961C49.7152 48.6576 49.7498 48.741 49.7499 48.828V49.7499Z" fill="#BD03FC"/>
<path d="M42.4075 19H27.5927C27.2475 19 26.9677 19.2798 26.9677 19.625V31.375C26.9677 31.7202 27.2475 32 27.5927 32H39.0625C39.4077 32 39.6875 31.7202 39.6875 31.375C39.6875 31.0298 39.4077 30.75 39.0625 30.75H29.2359L30.3604 29.75H39.6353L40.7618 30.75H37.0938C36.7487 30.75 36.4688 31.0298 36.4688 31.375C36.4688 31.7202 36.7487 32 37.0938 32H42.4075C42.7526 32 43.0325 31.7202 43.0325 31.375V19.625C43.0325 19.2798 42.7527 19 42.4075 19ZM29.4977 28.8444L28.2177 29.9827V21.0173L29.4977 22.1556V28.8444ZM39.2477 28.5H30.7477V22.5H39.2477V28.5ZM30.3604 21.25L29.236 20.25H40.7619L39.6353 21.25H30.3604ZM41.7825 29.9845L40.4977 28.8441V22.1559L41.7825 21.0155V29.9845Z" fill="#BD03FC"/>
</svg>
