<svg width="54" height="54" viewBox="0 0 54 54" fill="none" xmlns="http://www.w3.org/2000/svg">
<rect width="54" height="54" rx="27" fill="#FBB03B"/>
<path d="M38.0319 32.4578L34.7756 29.2016C33.6127 28.0386 31.6357 28.5038 31.1705 30.0156C30.8216 31.0623 29.6587 31.6438 28.612 31.4112C26.2862 30.8297 23.1462 27.806 22.5648 25.3639C22.2158 24.3172 22.9136 23.1542 23.9603 22.8054C25.4721 22.3402 25.9373 20.3632 24.7744 19.2003L21.5181 15.944C20.5877 15.13 19.1922 15.13 18.3781 15.944L16.1686 18.1536C13.959 20.4795 16.4011 26.6431 21.867 32.1089C27.3328 37.5748 33.4964 40.1333 35.8223 37.8074L38.0319 35.5978C38.846 34.6674 38.846 33.2719 38.0319 32.4578Z" fill="white"/>
</svg>
