<svg width="70" height="70" viewBox="0 0 70 70" fill="none" xmlns="http://www.w3.org/2000/svg">
<circle cx="35" cy="35" r="35" fill="#FAEDFF"/>
<path d="M30.2587 36.932C30.1661 36.8371 30.0556 36.7615 29.9336 36.7096C29.8117 36.6576 29.6806 36.6303 29.548 36.6293C29.3014 36.652 29.0227 36.7333 28.8347 36.9226L22.82 42.936C22.259 43.4997 21.944 44.2626 21.944 45.058C21.944 45.8533 22.259 46.6163 22.82 47.18C23.4054 47.764 24.1734 48.056 24.9414 48.056C25.7094 48.056 26.4787 47.764 27.0627 47.1786L33.0694 41.172C33.1623 41.0791 33.236 40.9688 33.2863 40.8475C33.3366 40.7261 33.3625 40.596 33.3625 40.4646C33.3625 40.3333 33.3366 40.2032 33.2863 40.0818C33.236 39.9604 33.1623 39.8502 33.0694 39.7573L30.2574 36.932H30.2587ZM25.6494 45.764C25.4591 45.9379 25.2091 46.0317 24.9513 46.0259C24.6936 46.0201 24.4481 45.9151 24.2658 45.7328C24.0835 45.5506 23.9786 45.305 23.9728 45.0473C23.967 44.7896 24.0608 44.5396 24.2347 44.3493L29.5347 39.0493L30.9494 40.464L25.6494 45.764ZM47.764 29.3066L43.164 33.9066C42.6516 34.4303 41.9527 34.7299 41.22 34.74C40.636 34.74 40.076 34.5333 39.656 34.1133L38.4774 32.9346L36.372 35.04C36.2794 35.133 36.1692 35.2068 36.048 35.2572C35.9267 35.3076 35.7967 35.3335 35.6654 35.3335C35.534 35.3335 35.404 35.3076 35.2828 35.2572C35.1615 35.2068 35.0514 35.133 34.9587 35.04C34.8658 34.9471 34.7921 34.8368 34.7418 34.7155C34.6915 34.5941 34.6656 34.464 34.6656 34.3326C34.6656 34.2013 34.6915 34.0712 34.7418 33.9498C34.7921 33.8284 34.8658 33.7182 34.9587 33.6253L37.064 31.52L35.8854 30.3413C34.9747 29.432 35.068 27.8586 36.092 26.8346L40.692 22.2346C40.7849 22.1417 40.8952 22.0681 41.0166 22.0178C41.1379 21.9675 41.268 21.9417 41.3994 21.9417C41.5307 21.9417 41.6608 21.9675 41.7822 22.0178C41.9035 22.0681 42.0138 22.1417 42.1067 22.2346C42.1996 22.3275 42.2733 22.4378 42.3235 22.5592C42.3738 22.6805 42.3997 22.8106 42.3997 22.942C42.3997 23.0733 42.3738 23.2034 42.3235 23.3248C42.2733 23.4461 42.1996 23.5564 42.1067 23.6493L37.5067 28.2493C37.232 28.524 37.216 28.8453 37.3 28.928L38.4787 30.1066L43.5214 25.064C43.709 24.8764 43.9634 24.771 44.2287 24.771C44.494 24.771 44.7484 24.8764 44.936 25.064C45.1236 25.2516 45.229 25.506 45.229 25.7713C45.229 26.0366 45.1236 26.291 44.936 26.4786L39.8934 31.5213L41.072 32.7C41.1574 32.7826 41.476 32.768 41.7507 32.4933L46.3507 27.8933C46.4436 27.8004 46.5539 27.7267 46.6752 27.6765C46.7966 27.6262 46.9267 27.6003 47.058 27.6003C47.1894 27.6003 47.3195 27.6262 47.4408 27.6765C47.5622 27.7267 47.6725 27.8004 47.7654 27.8933C47.8582 27.9862 47.9319 28.0965 47.9822 28.2178C48.0325 28.3392 48.0583 28.4693 48.0583 28.6006C48.0583 28.732 48.0325 28.8621 47.9822 28.9834C47.9319 29.1048 47.8582 29.2151 47.7654 29.308L47.764 29.3066Z" fill="#BD03FC"/>
<path d="M45.4974 42.7546L26.184 23.4426C25.3387 22.5985 24.1827 22.3132 23.2334 22.7199C22.996 22.8212 22.788 23.0439 22.6147 23.3066C22.104 24.0759 21.9547 25.0279 22.0827 25.9426C22.6867 30.2639 25.872 35.3879 28.98 38.4946L32.572 42.0879C33.0267 42.5426 33.624 42.7692 34.2214 42.7692C34.8187 42.7692 35.416 42.5412 35.8707 42.0866L36.1254 41.8319L41.408 47.1159C41.9907 47.6972 42.7547 47.9879 43.52 47.9879C44.3574 47.9879 45.196 47.6386 45.7947 46.9386C46.8294 45.7279 46.6227 43.8812 45.496 42.7559L45.4974 42.7546ZM33.9854 40.6719L30.3934 37.0799C27.352 34.0386 24.0707 28.6639 23.9827 24.6959C23.98 24.5746 24.008 24.5626 24.02 24.5572C24.0562 24.5434 24.0947 24.5366 24.1334 24.5372C24.2934 24.5372 24.5374 24.6226 24.7707 24.8546L37.5214 37.6052L35.4187 39.7079L34.456 40.6706C34.4251 40.7016 34.3883 40.7262 34.3478 40.743C34.3073 40.7598 34.2639 40.7685 34.22 40.7685C34.1762 40.7685 34.1328 40.7598 34.0923 40.743C34.0518 40.7262 34.015 40.7016 33.984 40.6706L33.9854 40.6719ZM44.2187 45.6999C44.0335 45.8844 43.7828 45.988 43.5214 45.988C43.26 45.988 43.0092 45.8844 42.824 45.6999L37.5414 40.4159L38.936 39.0212L44.2187 44.3039C44.3104 44.3955 44.3832 44.5043 44.4328 44.6241C44.4825 44.7439 44.508 44.8722 44.508 45.0019C44.508 45.1315 44.4825 45.2599 44.4328 45.3797C44.3832 45.4994 44.3104 45.6083 44.2187 45.6999Z" fill="#BD03FC"/>
</svg>
