<svg width="70" height="70" viewBox="0 0 70 70" fill="none" xmlns="http://www.w3.org/2000/svg">
<circle cx="35" cy="35" r="35" fill="#FAEDFF"/>
<path d="M45.916 26.7773C45.6969 26.5331 45.4289 26.3377 45.1293 26.2038C44.8298 26.0699 44.5054 26.0004 44.1773 26H27.7213L27.224 24.5067C26.9811 23.7763 26.5142 23.1411 25.8898 22.6911C25.2653 22.2411 24.515 21.9993 23.7453 22H23.284C23.0188 22 22.7644 22.1054 22.5769 22.2929C22.3894 22.4804 22.284 22.7348 22.284 23C22.284 23.2652 22.3894 23.5196 22.5769 23.7071C22.7644 23.8946 23.0188 24 23.284 24H23.7453C24.464 24 25.1 24.4587 25.3267 25.14L26.02 27.22L27.0787 36.7373C27.1769 37.6345 27.6031 38.4638 28.2754 39.066C28.9477 39.6681 29.8188 40.0008 30.7213 40H41.948C42.8503 40.0008 43.7212 39.6684 44.3935 39.0665C45.0658 38.4646 45.4921 37.6356 45.5907 36.7387L46.4973 28.5907C46.5334 28.2645 46.5002 27.9345 46.4001 27.622C46.2999 27.3095 46.1349 27.0217 45.916 26.7773ZM43.604 36.5187C43.5593 36.9265 43.3655 37.3034 43.0599 37.5771C42.7542 37.8507 42.3582 38.0018 41.948 38.0013H30.7213C30.3111 38.0018 29.9151 37.8507 29.6095 37.5771C29.3038 37.3034 29.11 36.9265 29.0653 36.5187L28.1187 28.0013H44.1787C44.2255 28.0012 44.2719 28.011 44.3147 28.0301C44.3575 28.0491 44.3959 28.077 44.4272 28.1118C44.4585 28.1467 44.4821 28.1877 44.4965 28.2323C44.5109 28.2769 44.5157 28.3241 44.5107 28.3707L43.604 36.5187Z" fill="#BD03FC"/>
<path d="M30.3333 42C28.68 42 27.3333 43.3453 27.3333 45C27.3333 46.6547 28.68 48 30.3333 48C31.9866 48 33.3333 46.6547 33.3333 45C33.3333 43.3453 31.9866 42 30.3333 42ZM30.3333 46C30.0681 46 29.8137 45.8946 29.6262 45.7071C29.4387 45.5196 29.3333 45.2652 29.3333 45C29.3333 44.7348 29.4387 44.4804 29.6262 44.2929C29.8137 44.1054 30.0681 44 30.3333 44C30.5985 44 30.8529 44.1054 31.0404 44.2929C31.228 44.4804 31.3333 44.7348 31.3333 45C31.3333 45.2652 31.228 45.5196 31.0404 45.7071C30.8529 45.8946 30.5985 46 30.3333 46ZM42.3333 42C40.68 42 39.3333 43.3453 39.3333 45C39.3333 46.6547 40.68 48 42.3333 48C43.9866 48 45.3333 46.6547 45.3333 45C45.3333 43.3453 43.9866 42 42.3333 42ZM42.3333 46C42.0681 46 41.8137 45.8946 41.6262 45.7071C41.4387 45.5196 41.3333 45.2652 41.3333 45C41.3333 44.7348 41.4387 44.4804 41.6262 44.2929C41.8137 44.1054 42.0681 44 42.3333 44C42.5985 44 42.8529 44.1054 43.0404 44.2929C43.228 44.4804 43.3333 44.7348 43.3333 45C43.3333 45.2652 43.228 45.5196 43.0404 45.7071C42.8529 45.8946 42.5985 46 42.3333 46Z" fill="#BD03FC"/>
</svg>
