<svg width="88" height="16" viewBox="0 0 88 16" fill="none" xmlns="http://www.w3.org/2000/svg">
<path d="M7.54384 1.01636C7.72053 0.622672 8.27947 0.622674 8.45616 1.01636L10.1021 4.6836C10.1748 4.8456 10.328 4.95688 10.5045 4.97597L14.5009 5.4081C14.9299 5.45449 15.1026 5.98607 14.7828 6.27577L11.8037 8.97438C11.6721 9.09359 11.6136 9.27365 11.65 9.44744L12.4739 13.3818C12.5624 13.8041 12.1102 14.1326 11.7358 13.918L8.2487 11.9186C8.09466 11.8303 7.90534 11.8303 7.7513 11.9186L4.26416 13.918C3.88981 14.1326 3.43762 13.8041 3.52608 13.3818L4.35005 9.44744C4.38644 9.27365 4.32794 9.09359 4.19634 8.97438L1.2172 6.27577C0.897384 5.98607 1.07011 5.45449 1.49913 5.4081L5.4955 4.97597C5.67204 4.95688 5.8252 4.8456 5.89791 4.6836L7.54384 1.01636Z" fill="#FFA404"/>
<path d="M25.5438 1.01636C25.7205 0.622672 26.2795 0.622674 26.4562 1.01636L28.1021 4.6836C28.1748 4.8456 28.328 4.95688 28.5045 4.97597L32.5009 5.4081C32.9299 5.45449 33.1026 5.98607 32.7828 6.27577L29.8037 8.97438C29.6721 9.09359 29.6136 9.27365 29.65 9.44744L30.4739 13.3818C30.5624 13.8041 30.1102 14.1326 29.7358 13.918L26.2487 11.9186C26.0947 11.8303 25.9053 11.8303 25.7513 11.9186L22.2642 13.918C21.8898 14.1326 21.4376 13.8041 21.5261 13.3818L22.35 9.44744C22.3864 9.27365 22.3279 9.09359 22.1963 8.97438L19.2172 6.27577C18.8974 5.98607 19.0701 5.45449 19.4991 5.4081L23.4955 4.97597C23.672 4.95688 23.8252 4.8456 23.8979 4.6836L25.5438 1.01636Z" fill="#FFA404"/>
<path d="M43.5438 1.01636C43.7205 0.622672 44.2795 0.622674 44.4562 1.01636L46.1021 4.6836C46.1748 4.8456 46.328 4.95688 46.5045 4.97597L50.5009 5.4081C50.9299 5.45449 51.1026 5.98607 50.7828 6.27577L47.8037 8.97438C47.6721 9.09359 47.6136 9.27365 47.65 9.44744L48.4739 13.3818C48.5624 13.8041 48.1102 14.1326 47.7358 13.918L44.2487 11.9186C44.0947 11.8303 43.9053 11.8303 43.7513 11.9186L40.2642 13.918C39.8898 14.1326 39.4376 13.8041 39.5261 13.3818L40.35 9.44744C40.3864 9.27365 40.3279 9.09359 40.1963 8.97438L37.2172 6.27577C36.8974 5.98607 37.0701 5.45449 37.4991 5.4081L41.4955 4.97597C41.672 4.95688 41.8252 4.8456 41.8979 4.6836L43.5438 1.01636Z" fill="#FFA404"/>
<path d="M61.5438 1.01636C61.7205 0.622672 62.2795 0.622674 62.4562 1.01636L64.1021 4.6836C64.1748 4.8456 64.328 4.95688 64.5045 4.97597L68.5009 5.4081C68.9299 5.45449 69.1026 5.98607 68.7828 6.27577L65.8037 8.97438C65.6721 9.09359 65.6136 9.27365 65.65 9.44744L66.4739 13.3818C66.5624 13.8041 66.1102 14.1326 65.7358 13.918L62.2487 11.9186C62.0947 11.8303 61.9053 11.8303 61.7513 11.9186L58.2642 13.918C57.8898 14.1326 57.4376 13.8041 57.5261 13.3818L58.35 9.44744C58.3864 9.27365 58.3279 9.09359 58.1963 8.97438L55.2172 6.27577C54.8974 5.98607 55.0701 5.45449 55.4991 5.4081L59.4955 4.97597C59.672 4.95688 59.8252 4.8456 59.8979 4.6836L61.5438 1.01636Z" fill="#FFA404"/>
<path d="M79.5438 1.01636C79.7205 0.622672 80.2795 0.622674 80.4562 1.01636L82.1021 4.6836C82.1748 4.8456 82.328 4.95688 82.5045 4.97597L86.5009 5.4081C86.9299 5.45449 87.1026 5.98607 86.7828 6.27577L83.8037 8.97438C83.6721 9.09359 83.6136 9.27365 83.65 9.44744L84.4739 13.3818C84.5624 13.8041 84.1102 14.1326 83.7358 13.918L80.2487 11.9186C80.0947 11.8303 79.9053 11.8303 79.7513 11.9186L76.2642 13.918C75.8898 14.1326 75.4376 13.8041 75.5261 13.3818L76.35 9.44744C76.3864 9.27365 76.3279 9.09359 76.1963 8.97438L73.2172 6.27577C72.8974 5.98607 73.0701 5.45449 73.4991 5.4081L77.4955 4.97597C77.672 4.95688 77.8252 4.8456 77.8979 4.6836L79.5438 1.01636Z" fill="#FFA404"/>
</svg>
