<svg width="54" height="54" viewBox="0 0 54 54" fill="none" xmlns="http://www.w3.org/2000/svg">
<rect width="54" height="54" rx="27" fill="#00D4C5"/>
<mask id="mask0_29245_1697" style="mask-type:luminance" maskUnits="userSpaceOnUse" x="13" y="16" width="22" height="22">
<path d="M34.6944 16.0762H13.3055V37.4651H34.6944V16.0762Z" fill="white"/>
</mask>
<g mask="url(#mask0_29245_1697)">
<path d="M21.104 31.7721V35.9055C21.1047 36.046 21.1496 36.1827 21.2323 36.2962C21.3149 36.4098 21.4313 36.4945 21.5648 36.5382C21.6982 36.582 21.8421 36.5827 21.976 36.5401C22.1099 36.4976 22.227 36.414 22.3107 36.3012L24.7285 33.0109L21.104 31.7721ZM34.4141 16.2001C34.3137 16.1286 34.1954 16.0863 34.0725 16.0778C33.9495 16.0693 33.8265 16.095 33.7172 16.152L13.6651 26.6236C13.5498 26.6846 13.4547 26.7779 13.3916 26.8922C13.3285 27.0064 13.3002 27.1365 13.31 27.2667C13.3199 27.3968 13.3675 27.5212 13.447 27.6247C13.5266 27.7282 13.6346 27.8061 13.7578 27.849L19.3323 29.7544L31.204 19.6036L22.0175 30.6715L31.36 33.8646C31.4527 33.8958 31.5511 33.9063 31.6483 33.8954C31.7454 33.8846 31.8391 33.8526 31.9227 33.8018C32.0061 33.7509 32.0776 33.6824 32.1319 33.6011C32.1862 33.5197 32.222 33.4275 32.2369 33.3308L34.6878 16.8436C34.7059 16.7215 34.6899 16.5968 34.6416 16.4833C34.5933 16.3697 34.5146 16.2717 34.4141 16.2001Z" fill="white"/>
</g>
</svg>
