<svg width="48" height="33" viewBox="0 0 48 33" fill="none" xmlns="http://www.w3.org/2000/svg">
<path d="M0.968262 22.5848C0.968262 18.1921 0.968262 13.7994 0.968262 9.40671C1.02743 8.81808 1.07919 8.22208 1.14575 7.63344C1.28627 6.42673 1.55251 5.25681 2.17374 4.18255C3.15736 2.49022 4.76221 1.71027 6.56674 1.25408C8.54137 0.753733 10.5678 0.628647 12.5942 0.621289C19.62 0.613931 26.6459 0.606573 33.6717 0.621289C35.1138 0.621289 36.556 0.650721 37.9907 0.731659C39.5512 0.819955 41.0969 1.04805 42.576 1.58518C44.4619 2.26948 45.7783 3.52033 46.407 5.44812C46.9099 6.98594 47.043 8.58262 47.0578 10.1793C47.0873 14.079 47.1243 17.9788 47.0578 21.8711C47.0282 23.4016 46.8359 24.9394 46.5253 26.4404C45.9262 29.3615 44.2105 31.3556 41.2522 32.1944C39.566 32.6726 37.8354 32.8713 36.0975 32.8787C28.5022 32.9081 20.9068 32.9007 13.3041 32.9007C11.226 32.9007 9.16261 32.7609 7.15839 32.1796C4.97668 31.5469 3.22392 30.3696 2.20333 28.2799C1.58949 27.0144 1.29366 25.6605 1.14575 24.2772C1.08658 23.718 1.02743 23.1514 0.968262 22.5922V22.5848ZM20.1969 23.0999C20.4927 22.9969 20.7959 22.9307 21.0696 22.7909C24.1831 21.1795 27.2893 19.5681 30.3954 17.942C30.6025 17.8316 30.817 17.6992 30.9723 17.5299C31.6897 16.7647 31.4234 15.6684 30.388 15.1312C27.3189 13.5419 24.2423 11.9526 21.1731 10.3706C19.8123 9.66424 18.7251 10.3191 18.7251 11.8422C18.7251 13.8877 18.7251 15.9332 18.7251 17.9788C18.7251 19.1413 18.7177 20.3112 18.7251 21.4738C18.7325 22.3862 19.339 23.019 20.1969 23.0999Z" fill="white"/>
</svg>
